<svg width="255" height="333" viewBox="0 0 255 333" xmlns="http://www.w3.org/2000/svg">
  <path d="m119.332 156.367-2.057-24.69c-21.816 0-42.825 11.494-55.552 28.949-12.726-17.455-33.736-28.948-55.55-28.948l-2.058 24.689c24.958 0 45.263 18.459 45.263 41.149h24.69c0-22.69 20.306-41.15 45.264-41.15M45.264 78.183c16.46 0 20.574 4.115 20.574 8.23s-4.115 8.228-20.574 8.228c-16.46 0-20.575-4.113-20.575-8.229 0-4.114 4.115-8.229 20.575-8.229m0 41.147c25.748 0 38.866-10.078 43.38-22.34a27.552 27.552 0 0 1 3.941-.29c.717 0 1.4.034 2.058.082v16.379l24.69 2.056V28.805c0-12.346 2.056-24.69 2.056-24.69H94.643v71.928c-.659.05-1.34.083-2.058.083-1.439 0-2.752-.119-3.942-.29-4.512-12.261-17.632-22.341-43.379-22.341-32.918 0-45.26 16.459-45.263 32.917C0 102.873 12.344 119.33 45.264 119.33M193.401 24.691c27.775 0 37.034 3.684 37.034 8.23 0 4.544-9.259 8.228-37.034 8.228-27.776 0-37.034-3.684-37.034-8.229 0-4.545 9.258-8.229 37.034-8.229m.001 41.147c48.008 0 61.724-14.737 61.724-32.918 0-18.18-13.716-32.918-61.724-32.918-48.007 0-61.724 14.738-61.724 32.918 0 18.181 13.717 32.918 61.724 32.918M190.074 79.979c-18.235 4.078-22.825 10.16-20.987 15.986 1.837 5.826 9.404 9.19 27.64 5.112 18.236-4.077 22.826-10.16 20.989-15.986-1.838-5.826-9.406-9.19-27.642-5.112M193.401 164.95c12.726 19.637 33.736 32.566 55.551 32.566l2.057-24.69c-21.273 0-39.117-16.113-43.937-37.725 26.789-1.244 43.937-1.366 43.937-1.366v-26.747s-23.66 4.292-58.172 6.188c-34.514 1.897-57.045 2.042-57.045 2.042v24.69s16.999-1.63 43.58-3.29c-5.303 20.844-22.807 36.209-43.58 36.209l2.057 24.689c21.816 0 42.825-12.93 55.552-32.566M41.149 37.034S32.919 16.46 28.804 0L0 4.115l16.46 37.034 24.689-4.115Z"/>
  <path d="M82.298 37.034S74.069 16.46 69.953 0L41.149 4.115l16.46 37.034 24.689-4.115ZM132.907 274.579c0 2.327-1.508 4.346-4.554 4.346h-3.595v-16.024h3.595c3.013 0 4.554 2.227 4.554 4.522v7.156Zm-4.554-15.65h-8.012v23.97h8.012c5.445 0 9.108-3.46 9.108-8.389v-7.02c0-4.932-3.663-8.562-9.108-8.562ZM156.739 274.475c0 2.33-1.506 4.486-4.554 4.486-3.047 0-4.554-2.156-4.554-4.486v-7.123c0-2.292 1.542-4.483 4.554-4.483 3.014 0 4.554 2.191 4.554 4.483v7.123Zm-4.554-15.989c-5.443 0-9.108 3.695-9.108 8.627v7.601c0 4.931 3.665 8.63 9.108 8.63 5.445 0 9.11-3.699 9.11-8.63v-7.601c0-4.932-3.665-8.627-9.11-8.627ZM175.539 276.976h-.24l-5.101-18.048h-5.033l7.43 23.971h5.615l7.533-23.971h-4.999zM190.058 262.901h6.369v16.024h-6.369v3.974h17.395v-3.974h-6.472v-16.024h6.472v-3.973h-17.395zM218.001 258.928h-4.557v23.971h17.191v-4.145h-12.634zM251.031 278.961h-10.546v-6.232h8.732v-3.903h-8.732v-5.958h10.203v-3.94h-14.723v23.971h15.066zM241.033 253.793c0 1.507 1.06 2.601 2.636 2.601 1.644 0 2.706-1.094 2.706-2.6 0-1.44-1.062-2.57-2.706-2.57-1.575 0-2.636 1.13-2.636 2.57M13.247 312.987c2.877 0 4.383 1.949 4.554 4.14h4.555c-.172-5.067-3.8-8.524-9.109-8.524-5.443 0-9.108 3.697-9.108 8.628v7.6c0 4.932 3.665 8.63 9.108 8.63 5.273 0 8.937-3.423 9.11-8.491H17.8c-.17 2.224-1.677 4.109-4.554 4.109-3.047 0-4.554-2.156-4.554-4.487v-7.123c0-2.291 1.541-4.482 4.554-4.482M27.835 313.019h6.368v16.024h-6.368v3.973H45.23v-3.973h-6.471v-16.024h6.471v-3.974H27.835zM59.75 329.147h-4.076v-6.85h3.904c2.088 0 3.938 1.03 3.938 3.393 0 2.362-1.576 3.457-3.767 3.457Zm-4.076-16.335h4.007c1.985 0 3.355 1.2 3.355 2.98 0 1.849-1.3 3.117-3.424 3.117h-3.938v-6.097Zm9.04 7.707v-.206c1.746-.994 2.808-2.772 2.808-4.964 0-3.596-2.706-6.304-7.362-6.304h-8.835v23.97h9.52c4.007 0 7.465-2.532 7.465-6.95 0-3.183-2.02-4.897-3.596-5.546ZM88.067 324.011c0 3.22-1.711 5.171-4.965 5.171-3.252 0-4.93-1.952-4.93-5.138v-14.999h-4.554v15.034c0 5.617 3.63 9.382 9.484 9.382 5.822 0 9.486-3.802 9.486-9.417v-14.999h-4.52v14.966ZM102.348 309.045h-4.556v23.971h17.19v-4.144h-12.634zM124.241 315.45c0-1.505 1.233-2.773 3.766-2.773 2.567 0 3.972 1.336 4.007 3.32h4.555c-.138-4.998-4.007-7.394-8.562-7.394-5.273 0-8.287 3.116-8.287 6.917 0 9.792 12.738 5.374 12.738 10.855 0 1.813-1.643 2.91-4.212 2.91-3.013 0-4.793-1.678-4.827-3.837h-4.418c0 4.76 3.631 8.014 9.11 8.014 5.751 0 9.038-3.186 9.038-7.43 0-9.691-12.908-5.583-12.908-10.582M160.54 309.045h-5.616l-8.218 10.103h-.206v-10.103h-4.554v23.971h4.554v-7.465l2.706-3.186 6.23 10.651h5.344l-8.458-14.314zM171.257 324.215l3.185-10.202h.274l3.15 10.202h-6.609Zm.514-15.17-7.91 23.971h4.657l1.472-4.725h9.143l1.472 4.725h4.828l-7.944-23.97h-5.718ZM189.235 313.019h6.368v16.024h-6.368v3.973h17.396v-3.973h-6.472v-16.024h6.472v-3.974h-17.396zM211.8 313.054h7.123v19.962h4.554v-19.962h7.157v-4.009H211.8zM241.035 303.91c0 1.507 1.06 2.602 2.636 2.602 1.643 0 2.706-1.094 2.706-2.601 0-1.44-1.063-2.57-2.706-2.57-1.575 0-2.636 1.13-2.636 2.57M240.486 322.846h8.732v-3.901h-8.732v-5.958h10.204v-3.942h-14.724v23.971h15.068v-3.938h-10.548z"/>
</svg>
